<svg width="22" height="22" viewBox="0 0 22 22" fill="none" xmlns="http://www.w3.org/2000/svg">
<g clip-path="url(#clip0_36_333)">
<g filter="url(#filter0_d_36_333)">
<path d="M16.9167 12.3333H12.3333V16.9167C12.3333 17.4208 11.9208 17.8333 11.4167 17.8333C10.9125 17.8333 10.5 17.4208 10.5 16.9167V12.3333H5.91667C5.4125 12.3333 5 11.9208 5 11.4167C5 10.9125 5.4125 10.5 5.91667 10.5H10.5V5.91667C10.5 5.4125 10.9125 5 11.4167 5C11.9208 5 12.3333 5.4125 12.3333 5.91667V10.5H16.9167C17.4208 10.5 17.8333 10.9125 17.8333 11.4167C17.8333 11.9208 17.4208 12.3333 16.9167 12.3333Z" fill="white"/>
</g>
</g>
<defs>
<filter id="filter0_d_36_333" x="1" y="5" width="20.8333" height="20.8333" filterUnits="userSpaceOnUse" color-interpolation-filters="sRGB">
<feFlood flood-opacity="0" result="BackgroundImageFix"/>
<feColorMatrix in="SourceAlpha" type="matrix" values="0 0 0 0 0 0 0 0 0 0 0 0 0 0 0 0 0 0 127 0" result="hardAlpha"/>
<feOffset dy="4"/>
<feGaussianBlur stdDeviation="2"/>
<feComposite in2="hardAlpha" operator="out"/>
<feColorMatrix type="matrix" values="0 0 0 0 0 0 0 0 0 0 0 0 0 0 0 0 0 0 0.25 0"/>
<feBlend mode="normal" in2="BackgroundImageFix" result="effect1_dropShadow_36_333"/>
<feBlend mode="normal" in="SourceGraphic" in2="effect1_dropShadow_36_333" result="shape"/>
</filter>
<clipPath id="clip0_36_333">
<rect width="22" height="22" fill="white"/>
</clipPath>
</defs>
</svg>
