<svg width="72" height="73" viewBox="0 0 72 73" fill="none" xmlns="http://www.w3.org/2000/svg">
<path d="M31.1683 16.6341C31.1683 16.6341 16.4657 34.2672 18.385 37.244C20.3043 40.2208 36.3476 51.4448 42.0811 53.9621L47.7046 60.7168L62.8025 47.492C62.8025 47.492 45.8912 23.3075 41.9507 19.5133C38.0102 15.7191 31.1683 16.6341 31.1683 16.6341Z" fill="#FFC9B0"/>
<path d="M47.6883 61.1235H47.6557C47.6014 61.1191 47.5486 61.1038 47.5003 61.0787C47.452 61.0535 47.4092 61.019 47.3745 60.9771L41.8162 54.2955C35.1699 51.3391 19.7705 40.2005 18.0223 37.4636C16.0622 34.3933 28.3687 19.3588 30.8545 16.3739C30.9194 16.2962 31.0109 16.2455 31.1112 16.2315C31.3965 16.1909 38.1976 15.3003 42.236 19.2043C46.1602 22.9985 62.4602 46.272 63.1529 47.2643C63.2099 47.3462 63.2347 47.4461 63.2227 47.545C63.2107 47.644 63.1627 47.7351 63.0877 47.8011L47.9573 61.0259C47.8824 61.0898 47.7868 61.1245 47.6883 61.1235ZM31.3883 17.0205C25.777 23.763 17.464 35.0521 18.7232 37.0244C20.5325 39.8711 36.3598 51.0056 42.2441 53.5879C42.3005 53.6151 42.3505 53.6539 42.3908 53.7018L47.725 60.1353L62.2687 47.4269C60.3086 44.6372 45.2922 23.3035 41.6614 19.7736C38.2384 16.4715 32.3948 16.9147 31.3761 17.0205H31.3883Z" fill="black"/>
<path d="M12.2725 46.8617C12.2725 46.8617 28.491 23.5027 31.8529 20.6032C35.2147 17.7037 42.9246 12.2787 46.1398 12.3967C49.1798 12.5105 50.8261 15.1091 47.7698 18.9033C47.7698 18.9033 51.0583 16.7683 53.0673 19.6679C55.0763 22.5674 51.4455 25.2067 51.4455 25.2067C51.4455 25.2067 54.7544 23.7793 56.1032 26.1135C57.3827 28.3258 53.7682 31.3026 53.7682 31.3026C53.7682 31.3026 56.6207 28.338 58.4178 31.9898C60.0804 35.3692 41.5188 49.7368 39.1512 50.8876C36.3272 52.2622 32.7738 51.9125 32.7738 51.9125L24.7298 61.8067L12.2725 46.8617Z" fill="#E28362"/>
<path d="M24.7298 62.2133C24.6699 62.2134 24.6107 62.2003 24.5565 62.175C24.5023 62.1497 24.4543 62.1128 24.416 62.0669L11.9587 47.1057C11.9048 47.0349 11.8757 46.9485 11.8757 46.8596C11.8757 46.7708 11.9048 46.6843 11.9587 46.6136C12.6229 45.6579 28.2587 23.1815 31.6084 20.2779C34.958 17.3743 42.6394 11.99 46.0379 11.99H46.1561C47.7861 12.051 49.0086 12.7505 49.5302 13.9054C50.0518 15.0603 49.8318 16.4389 48.9353 17.9721C50.3208 17.5654 52.126 17.6467 53.3811 19.4727C54.6362 21.2986 53.8945 23.1693 52.8676 24.4177C54.1431 24.2591 55.6386 24.4991 56.4536 25.9143C57.2034 27.2075 56.5555 28.6715 55.7364 29.7939C55.9849 29.7554 56.2378 29.7554 56.4862 29.7939C57.4194 29.9362 58.1937 30.6072 58.7805 31.8272C58.8818 32.068 58.934 32.3265 58.934 32.5877C58.934 32.8488 58.8818 33.1073 58.7805 33.3481C57.1505 38.1387 41.6369 50.1516 39.3427 51.2699C36.8244 52.4899 33.8089 52.4045 32.9653 52.3517L25.0598 62.1117C25.0219 62.1583 24.9741 62.196 24.9199 62.222C24.8656 62.248 24.8062 62.2617 24.7461 62.2621L24.7298 62.2133ZM12.7859 46.8413L24.7257 61.1845L32.4682 51.6441C32.5107 51.5925 32.5653 51.5521 32.6271 51.5266C32.6889 51.5011 32.7561 51.4911 32.8227 51.4977C32.8594 51.4977 36.3028 51.8149 38.9841 50.5095C41.1968 49.4318 56.4659 37.5531 58.0103 33.0594C58.1366 32.7747 58.1554 32.454 58.0633 32.1566C57.5987 31.2131 57.0323 30.6845 56.3762 30.5828C55.5938 30.4567 54.8155 30.9569 54.3917 31.2904C54.2002 31.4734 54.0698 31.5832 54.0412 31.6035C53.961 31.6684 53.8592 31.7005 53.7562 31.6933C53.6532 31.6861 53.5568 31.6402 53.4864 31.5648C53.416 31.4894 53.377 31.3902 53.3771 31.2872C53.3772 31.1842 53.4165 31.085 53.487 31.0098C53.6018 30.8947 53.7229 30.7861 53.8497 30.6845C54.6647 29.924 56.6452 27.8378 55.7609 26.3047C54.6117 24.3161 51.7389 25.5157 51.6166 25.5686C51.5247 25.6101 51.4206 25.616 51.3245 25.5853C51.2285 25.5546 51.1472 25.4894 51.0965 25.4024C51.0458 25.3154 51.0292 25.2127 51.05 25.1142C51.0708 25.0156 51.1275 24.9283 51.2091 24.8691C51.3395 24.7715 54.4691 22.4535 52.7087 19.9159C50.9483 17.3783 48.1121 19.188 47.9899 19.2653C47.9087 19.3156 47.8125 19.336 47.7179 19.3227C47.6233 19.3094 47.5364 19.2634 47.4723 19.1927C47.4082 19.122 47.3711 19.0311 47.3674 18.9358C47.3636 18.8405 47.3936 18.747 47.452 18.6715C48.8334 16.9473 49.3102 15.3735 48.7926 14.2429C48.3851 13.3767 47.4234 12.8521 46.1276 12.8033H46.0298C42.892 12.8033 35.3329 18.1469 32.1259 20.9123C29.0207 23.58 14.5545 44.32 12.7859 46.8413Z" fill="black"/>
<path d="M25.9051 38.4603L16.0664 32.8645C14.8346 32.1638 13.2669 32.5924 12.5648 33.8217L12.2904 34.3023C11.5883 35.5316 12.0178 37.0961 13.2496 37.7967L23.0884 43.3926C24.3202 44.0932 25.8879 43.6646 26.59 42.4353L26.8644 41.9548C27.5665 40.7255 27.137 39.161 25.9051 38.4603Z" fill="#FFC9B0"/>
<path d="M24.3589 44.1329C23.8426 44.1287 23.3365 43.9884 22.8919 43.7262L13.0508 38.1305C12.7094 37.9372 12.4097 37.6784 12.1688 37.369C11.928 37.0597 11.7508 36.7059 11.6474 36.328C11.544 35.9501 11.5165 35.5555 11.5664 35.1669C11.6163 34.7784 11.7427 34.4035 11.9383 34.0639L12.2154 33.584C12.4084 33.2452 12.6664 32.9477 12.9747 32.7085C13.283 32.4692 13.6355 32.293 14.0121 32.1899C14.3887 32.0868 14.7819 32.0588 15.1694 32.1075C15.5568 32.1562 15.9309 32.2807 16.2701 32.4738L26.1275 38.1021C26.4685 38.2958 26.7678 38.5548 27.0084 38.8642C27.2489 39.1735 27.4259 39.5273 27.5293 39.905C27.6326 40.2828 27.6603 40.6772 27.6106 41.0656C27.561 41.4541 27.435 41.8289 27.24 42.1687L26.9629 42.6486C26.7705 42.988 26.5126 43.286 26.2042 43.5254C25.8957 43.7648 25.5428 43.9409 25.1658 44.0435C24.9019 44.1084 24.6307 44.1385 24.3589 44.1329ZM14.799 32.9333C14.6062 32.9327 14.4142 32.9587 14.2285 33.0106C13.9543 33.085 13.6976 33.2128 13.4732 33.3866C13.2487 33.5604 13.0608 33.7767 12.9204 34.0232L12.6474 34.5031C12.5072 34.7495 12.4171 35.021 12.3822 35.3022C12.3473 35.5834 12.3683 35.8687 12.444 36.1418C12.5197 36.4149 12.6486 36.6704 12.8233 36.8937C12.9981 37.117 13.2152 37.3038 13.4624 37.4433L23.3035 43.039C23.55 43.1793 23.8218 43.2696 24.1034 43.3047C24.385 43.3397 24.6707 43.3189 24.9442 43.2433C25.2176 43.1677 25.4734 43.0389 25.6968 42.8642C25.9201 42.6896 26.1067 42.4725 26.2457 42.2257L26.5228 41.7458C26.8048 41.2479 26.8773 40.6587 26.7245 40.1075C26.5717 39.5563 26.2061 39.0881 25.7078 38.8056L15.8666 33.2099C15.5407 33.027 15.1729 32.9317 14.799 32.9333Z" fill="black"/>
<path d="M29.7134 34.0883L18.016 27.4352C16.6961 26.6846 15.0164 27.1438 14.2642 28.4609L14.1714 28.6234C13.4192 29.9405 13.8793 31.6168 15.1992 32.3675L26.8966 39.0205C28.2164 39.7712 29.8961 39.312 30.6483 37.9949L30.7411 37.8323C31.4933 36.5152 31.0332 34.8389 29.7134 34.0883Z" fill="#FFC9B0"/>
<path d="M28.2587 39.7857C27.7119 39.788 27.1739 39.6478 26.698 39.379L14.9987 32.7259C14.6382 32.5212 14.3217 32.2475 14.0673 31.9205C13.813 31.5936 13.6258 31.2198 13.5164 30.8205C13.407 30.4212 13.3776 30.0043 13.4299 29.5937C13.4821 29.1831 13.615 28.7868 13.821 28.4275L13.9147 28.2607C14.3298 27.5361 15.016 27.0054 15.8228 26.7851C16.6295 26.5647 17.4909 26.6728 18.2179 27.0855L29.9172 33.7467C30.2777 33.9515 30.5941 34.2251 30.8486 34.5519C31.103 34.8788 31.2905 35.2525 31.4002 35.6516C31.51 36.0508 31.5398 36.4676 31.4882 36.8783C31.4365 37.289 31.3042 37.6855 31.099 38.0451L31.0053 38.2078C30.7277 38.6893 30.3274 39.0888 29.845 39.366C29.3626 39.6431 28.8153 39.7879 28.2587 39.7857ZM16.6613 27.4799C16.2476 27.482 15.8417 27.5924 15.4841 27.8C15.1266 28.0077 14.8299 28.3054 14.6238 28.6633L14.53 28.826C14.2227 29.3648 14.1424 30.0033 14.3067 30.6011C14.471 31.199 14.8665 31.7073 15.4062 32.0143L27.1055 38.6673C27.3727 38.8197 27.6674 38.918 27.9727 38.9565C28.278 38.995 28.5879 38.9731 28.8847 38.8918C29.1815 38.8106 29.4593 38.6717 29.7022 38.4832C29.9451 38.2946 30.1484 38.0601 30.3003 37.793L30.394 37.6303C30.5467 37.3637 30.6452 37.0696 30.6838 36.7649C30.7224 36.4602 30.7004 36.1509 30.619 35.8547C30.5376 35.5586 30.3984 35.2813 30.2095 35.0389C30.0205 34.7965 29.7855 34.5937 29.5179 34.4421L17.8145 27.789C17.4635 27.5878 17.066 27.4813 16.6613 27.4799Z" fill="black"/>
<path d="M33.6455 29.7912L20.9143 22.5502C19.5495 21.774 17.8125 22.2488 17.0347 23.6108C16.2569 24.9728 16.7327 26.7062 18.0975 27.4825L30.8287 34.7235C32.1935 35.4997 33.9304 35.0249 34.7083 33.6629C35.4861 32.3009 35.0103 30.5675 33.6455 29.7912Z" fill="#FFC9B0"/>
<path d="M32.24 35.5035C31.68 35.5074 31.1285 35.3674 30.6385 35.0968L17.896 27.8337C17.492 27.6407 17.1321 27.3667 16.8389 27.0288C16.5457 26.6909 16.3254 26.2963 16.1918 25.8696C16.0582 25.443 16.0141 24.9934 16.0623 24.549C16.1106 24.1046 16.25 23.6749 16.472 23.2866C16.6941 22.8984 16.9939 22.56 17.3528 22.2925C17.7117 22.025 18.1219 21.8343 18.558 21.732C18.994 21.6298 19.4465 21.6184 19.8872 21.6985C20.3279 21.7785 20.7473 21.9483 21.1193 22.1973L33.87 29.436C34.4213 29.7592 34.8651 30.237 35.1464 30.81C35.4276 31.3831 35.5338 32.026 35.4517 32.6587C35.3696 33.2915 35.1029 33.8863 34.6847 34.3689C34.2666 34.8516 33.7154 35.2009 33.0998 35.3733C32.8202 35.4541 32.5311 35.4978 32.24 35.5035ZM31.0175 34.3689C31.5781 34.6785 32.2381 34.7561 32.8555 34.585C33.4728 34.414 33.9983 34.0079 34.3187 33.4542C34.6391 32.9004 34.7289 32.2433 34.5688 31.6242C34.4087 31.0051 34.0114 30.4734 33.4625 30.1436L20.7322 22.9009C20.1755 22.6392 19.5405 22.5966 18.9538 22.7815C18.367 22.9665 17.8718 23.3654 17.5667 23.8987C17.2617 24.432 17.1694 25.0605 17.3083 25.6587C17.4471 26.2569 17.8068 26.7809 18.3157 27.1261L31.0175 34.3689Z" fill="black"/>
<path d="M35.3468 24.2244L23.6494 17.5713C22.3296 16.8207 20.6499 17.2799 19.8977 18.597L19.8048 18.7595C19.0526 20.0766 19.5128 21.7529 20.8326 22.5036L32.53 29.1566C33.8498 29.9073 35.5296 29.4481 36.2818 28.131L36.3746 27.9684C37.1268 26.6513 36.6666 24.975 35.3468 24.2244Z" fill="#FFC9B0"/>
<path d="M33.8904 29.924C33.3449 29.9254 32.8085 29.7853 32.3337 29.5173L20.6344 22.8643C20.274 22.6595 19.9575 22.3858 19.703 22.059C19.4486 21.7321 19.2611 21.3584 19.1514 20.9593C19.0417 20.5601 19.0118 20.1433 19.0635 19.7326C19.1152 19.322 19.2474 18.9255 19.4526 18.5658L19.5464 18.4031C19.9616 17.6775 20.6482 17.1459 21.4557 16.9248C22.2631 16.7037 23.1255 16.8112 23.8536 17.2238L35.553 23.8769C35.9134 24.0817 36.2299 24.3553 36.4843 24.6821C36.7388 25.009 36.9262 25.3827 37.036 25.7818C37.1457 26.181 37.1756 26.5978 37.1239 27.0085C37.0722 27.4192 36.94 27.8157 36.7347 28.1753L36.641 28.338C36.4361 28.6984 36.1617 29.0147 35.8337 29.2688C35.5057 29.5229 35.1305 29.7096 34.7298 29.8183C34.4561 29.8915 34.1737 29.9271 33.8904 29.924ZM22.2929 17.6183C21.8791 17.6174 21.4725 17.7261 21.1146 17.9333C20.7566 18.1405 20.4601 18.4387 20.2554 18.7976L20.1617 18.9603C19.8544 19.499 19.7741 20.1375 19.9383 20.7354C20.1026 21.3333 20.4981 21.8416 21.0378 22.1485L32.7371 28.8016C33.277 29.1083 33.9168 29.1884 34.5159 29.0245C35.115 28.8605 35.6243 28.4659 35.9319 27.9273L36.0257 27.7646C36.333 27.2258 36.4133 26.5873 36.249 25.9894C36.0847 25.3916 35.6892 24.8833 35.1495 24.5763L23.4502 17.9233C23.0976 17.7228 22.6987 17.6177 22.2929 17.6183Z" fill="black"/>
<path d="M34.2775 18.3503L32.9001 18.6959C32.9001 18.6959 25.5651 22.9334 23.7192 20.1843C21.8732 17.4353 31.6369 10.5667 33.9067 10.4528C36.1764 10.3389 39.7828 14.4259 39.7828 14.4259L34.2775 18.3503Z" fill="#FFC9B0"/>
<path d="M25.8504 21.5223C24.6931 21.5223 23.8659 21.1481 23.3687 20.408C22.9612 19.7695 22.9612 18.9521 23.4624 17.968C25.0924 14.7147 31.8162 10.1356 33.8863 10.0339H33.9963C36.4413 10.0339 39.9377 13.9786 40.0884 14.1494C40.1256 14.1919 40.1535 14.2418 40.1704 14.2957C40.1872 14.3496 40.1926 14.4064 40.1862 14.4625C40.1799 14.519 40.1617 14.5735 40.1329 14.6225C40.1042 14.6715 40.0654 14.714 40.0192 14.7472L34.5016 18.7C34.4597 18.7288 34.4127 18.7495 34.3631 18.761L33.0387 19.0945C31.7841 19.7952 30.4728 20.3897 29.1185 20.8716C28.0717 21.264 26.9679 21.4837 25.8504 21.5223ZM34.0004 10.8554H33.923C32.293 10.9367 25.773 15.2311 24.1878 18.3421C23.8373 19.0335 23.7803 19.5621 24.0452 19.9688C25.3736 21.9615 30.7282 19.4808 32.6801 18.3421C32.7137 18.3244 32.7492 18.3107 32.786 18.3015L34.086 17.9761L39.1675 14.3609C38.0224 13.1327 35.5611 10.8554 34.0045 10.8554H34.0004Z" fill="black"/>
<path d="M27.6434 63.84L20.8952 72.2214C20.4877 72.0547 20.0802 71.8798 19.6727 71.6968C11.6245 68.0335 5.09688 61.7003 1.20071 53.775L6.64491 47.0121L8.47459 48.4761L23.8781 60.8266L24.8805 61.6399L25.7974 62.376L27.6434 63.84Z" fill="#008BBD"/>
<path d="M20.8952 72.6118C20.8422 72.6124 20.7896 72.6028 20.7403 72.5833C20.3084 72.4044 19.8927 72.2255 19.5178 72.0506C11.391 68.3426 4.79979 61.943 0.86249 53.9376C0.828199 53.868 0.814584 53.7901 0.823248 53.713C0.831913 53.6359 0.862497 53.5628 0.911391 53.5025L6.33521 46.76C6.36884 46.7182 6.41041 46.6835 6.45753 46.6578C6.50465 46.6321 6.5564 46.616 6.6098 46.6103C6.66319 46.6046 6.71718 46.6095 6.76867 46.6248C6.82015 46.64 6.86811 46.6652 6.90979 46.699L24.143 60.5257L25.1006 61.2943L25.1373 61.3187L27.8838 63.5228C27.9257 63.5563 27.9605 63.5978 27.9862 63.6449C28.012 63.6919 28.0281 63.7435 28.0338 63.7968C28.0395 63.8501 28.0346 63.904 28.0193 63.9553C28.0041 64.0067 27.9788 64.0546 27.9449 64.0962L21.213 72.4613C21.1747 72.5085 21.1262 72.5465 21.0712 72.5725C21.0162 72.5986 20.9561 72.612 20.8952 72.6118ZM1.67749 53.8116C5.55085 61.5394 11.959 67.7105 19.8357 71.2983C20.1291 71.4324 20.4347 71.5667 20.7566 71.7049L27.0566 63.8766L24.6605 61.9531L24.6238 61.9287L23.6214 61.1153L6.71419 47.5733L1.67749 53.8116Z" fill="black"/>
<path d="M28.9836 58.4045L11.6548 44.5102L8.47458 48.4603L25.8034 62.3546L28.9836 58.4045Z" fill="white"/>
<path d="M25.8137 62.7623C25.7204 62.7627 25.6298 62.7311 25.557 62.6728L8.22602 48.7933C8.14267 48.7256 8.08948 48.6278 8.07803 48.5212C8.06659 48.4146 8.0978 48.3078 8.16489 48.224L11.3434 44.2712C11.3776 44.2297 11.4197 44.1954 11.4673 44.1703C11.5148 44.1452 11.5669 44.1297 11.6205 44.1248C11.727 44.1131 11.8339 44.1438 11.918 44.2102L29.2489 58.1019C29.2908 58.1355 29.3256 58.177 29.3513 58.224C29.3771 58.271 29.3933 58.3226 29.399 58.3759C29.4046 58.4292 29.3997 58.4831 29.3844 58.5345C29.3692 58.5859 29.3439 58.6337 29.3101 58.6753L26.1275 62.62C26.0594 62.7028 25.9612 62.7554 25.8545 62.7664L25.8137 62.7623ZM9.05732 48.3866L25.7648 61.77L28.4339 58.4557L11.7264 45.0723L9.05732 48.3866Z" fill="black"/>
<path d="M70.765 51.6075C67.334 59.8213 61.1364 66.5816 53.2425 70.7208C52.8595 70.9241 52.4683 71.1275 52.0771 71.3064L46.0624 63.84L47.8921 62.3719L65.223 48.4761L67.0527 47.0121L70.765 51.6075Z" fill="#008BBD"/>
<path d="M52.0975 71.7253C52.0394 71.7215 51.9828 71.7055 51.9315 71.6781C51.8802 71.6508 51.8353 71.6128 51.8 71.5667L45.7649 64.0718C45.7311 64.0302 45.7058 63.9823 45.6905 63.931C45.6753 63.8796 45.6703 63.8257 45.676 63.7724C45.6817 63.7191 45.6979 63.6675 45.7236 63.6205C45.7494 63.5734 45.7842 63.532 45.826 63.4984L66.796 46.6787C66.8377 46.6449 66.8856 46.6197 66.9371 46.6044C66.9886 46.5892 67.0426 46.5843 67.096 46.59C67.1494 46.5956 67.2011 46.6118 67.2482 46.6375C67.2954 46.6632 67.3369 46.6979 67.3706 46.7397L71.0829 51.3513C71.1277 51.4079 71.1566 51.4754 71.1666 51.5469C71.1766 51.6183 71.1674 51.6912 71.1399 51.7579C67.6821 60.0609 61.4267 66.8976 53.4544 71.0868C53.0918 71.282 52.7046 71.4731 52.2727 71.6805C52.2187 71.7092 52.1586 71.7245 52.0975 71.7253ZM46.637 63.8847L52.2116 70.7981C52.5172 70.6476 52.8024 70.5053 53.0714 70.3629C60.8027 66.296 66.8879 59.6874 70.2964 51.6563L66.9916 47.5733L65.4798 48.7933L46.637 63.8847Z" fill="black"/>
<path d="M47.8942 62.3653L65.223 48.471L62.0429 44.5209L44.714 58.4153L47.8942 62.3653Z" fill="white"/>
<path d="M47.8921 62.7623H47.8513C47.7977 62.7574 47.7456 62.7419 47.6981 62.7168C47.6505 62.6917 47.6084 62.6574 47.5742 62.6159L44.3957 58.6631C44.3619 58.6215 44.3366 58.5737 44.3213 58.5223C44.3061 58.4709 44.3011 58.417 44.3068 58.3637C44.3125 58.3105 44.3287 58.2588 44.3544 58.2118C44.3802 58.1648 44.415 58.1233 44.4568 58.0897L61.7878 44.198C61.8295 44.1642 61.8774 44.139 61.9289 44.1238C61.9804 44.1085 62.0344 44.1036 62.0878 44.1093C62.1412 44.115 62.1929 44.1311 62.2401 44.1568C62.2872 44.1825 62.3288 44.2172 62.3624 44.259L65.5409 48.2118C65.608 48.2956 65.6392 48.4024 65.6277 48.509C65.6163 48.6156 65.5631 48.7134 65.4798 48.7811L48.1325 62.6729C48.0641 62.7277 47.9798 62.7591 47.8921 62.7623ZM45.28 58.4679L47.9491 61.7823L64.6566 48.3989L61.9875 45.0845L45.28 58.4679Z" fill="black"/>
<path d="M19.3752 13.5679C19.3167 13.5684 19.2587 13.5563 19.2053 13.5324C19.1518 13.5086 19.1042 13.4735 19.0655 13.4296L16.9995 11.0628C16.9282 10.9814 16.8922 10.875 16.8994 10.7671C16.9067 10.6592 16.9566 10.5585 17.0382 10.4874C17.1198 10.4162 17.2264 10.3803 17.3345 10.3875C17.4427 10.3947 17.5435 10.4446 17.6148 10.526L19.6808 12.8928C19.7516 12.9742 19.787 13.0804 19.7794 13.1879C19.7717 13.2954 19.7216 13.3955 19.6401 13.4662C19.5669 13.5307 19.4729 13.5667 19.3752 13.5679Z" fill="#1D262B"/>
<path d="M10.944 23.3645C10.8982 23.3639 10.8527 23.3557 10.8096 23.3401L4.39959 21.0871C4.34487 21.0731 4.29366 21.0479 4.24922 21.0131C4.20478 20.9783 4.16807 20.9347 4.14143 20.885C4.11479 20.8353 4.09879 20.7806 4.09446 20.7244C4.09013 20.6682 4.09756 20.6117 4.11627 20.5585C4.13498 20.5053 4.16457 20.4566 4.20315 20.4154C4.24174 20.3742 4.28848 20.3415 4.34042 20.3193C4.39235 20.2972 4.44833 20.286 4.50482 20.2865C4.5613 20.2871 4.61706 20.2994 4.66853 20.3226L11.0785 22.5715C11.1866 22.5893 11.2832 22.6492 11.347 22.738C11.4108 22.8269 11.4366 22.9374 11.4188 23.0452C11.4009 23.1531 11.3409 23.2495 11.2519 23.3131C11.1628 23.3768 11.0521 23.4026 10.944 23.3848V23.3645Z" fill="#1D262B"/>
<path d="M4.1551 39.8792C4.04702 39.8916 3.93843 39.8606 3.85322 39.7931C3.76801 39.7257 3.71316 39.6271 3.70073 39.5193C3.6883 39.4114 3.71932 39.3031 3.78695 39.218C3.85458 39.133 3.95329 39.0783 4.06137 39.0659L7.64737 38.2241C7.74868 38.2084 7.85219 38.2314 7.93727 38.2884C8.02234 38.3455 8.08272 38.4325 8.10638 38.5321C8.13003 38.6316 8.11522 38.7364 8.06488 38.8256C8.01455 38.9147 7.9324 38.9816 7.83482 39.013L4.24882 39.8589C4.21859 39.8697 4.18709 39.8765 4.1551 39.8792Z" fill="#1D262B"/>
<path d="M51.6248 13.5679C51.5271 13.5667 51.4331 13.5307 51.3599 13.4662C51.2783 13.3955 51.2282 13.2954 51.2206 13.1879C51.213 13.0804 51.2484 12.9742 51.3191 12.8928L53.3852 10.526C53.4565 10.4446 53.5573 10.3947 53.6655 10.3875C53.7736 10.3803 53.8802 10.4162 53.9618 10.4874C54.0434 10.5585 54.0933 10.6592 54.1006 10.7671C54.1078 10.875 54.0718 10.9814 54.0005 11.0628L51.9345 13.4133C51.8974 13.4602 51.8504 13.4983 51.7969 13.5251C51.7434 13.5518 51.6846 13.5664 51.6248 13.5679Z" fill="#1D262B"/>
<path d="M60.056 23.3645C59.9479 23.3823 59.8371 23.3565 59.7481 23.2928C59.6591 23.2291 59.599 23.1327 59.5812 23.0249C59.5634 22.917 59.5892 22.8065 59.653 22.7177C59.7168 22.6288 59.8134 22.5689 59.9215 22.5511L66.3314 20.3267C66.3829 20.3034 66.4387 20.2912 66.4952 20.2906C66.5517 20.29 66.6076 20.3012 66.6596 20.3234C66.7115 20.3456 66.7582 20.3783 66.7968 20.4195C66.8354 20.4606 66.865 20.5094 66.8837 20.5626C66.9024 20.6157 66.9098 20.6722 66.9055 20.7284C66.9012 20.7846 66.8852 20.8393 66.8586 20.889C66.8319 20.9388 66.7952 20.9824 66.7508 21.0172C66.7063 21.052 66.6551 21.0772 66.6004 21.0912L60.1904 23.3441C60.1471 23.3584 60.1016 23.3652 60.056 23.3645Z" fill="#1D262B"/>
<path d="M66.8449 39.8792C66.8138 39.8831 66.7823 39.8831 66.7512 39.8792L63.1652 39.0333C63.0676 39.0019 62.9854 38.935 62.9351 38.8459C62.8848 38.7567 62.87 38.652 62.8936 38.5524C62.9173 38.4529 62.9776 38.3659 63.0627 38.3088C63.1478 38.2517 63.2513 38.2287 63.3526 38.2444L66.9386 39.0862C67.0467 39.0986 67.1454 39.1533 67.213 39.2384C67.2807 39.3234 67.3117 39.4318 67.2993 39.5396C67.2868 39.6475 67.232 39.746 67.1468 39.8135C67.0616 39.881 66.953 39.9119 66.8449 39.8995V39.8792Z" fill="#1D262B"/>
<path d="M35.5 6.90666C35.3919 6.90666 35.2883 6.86381 35.2119 6.78755C35.1354 6.71128 35.0925 6.60785 35.0925 6.49999V0.997792C35.0925 0.889937 35.1354 0.7865 35.2119 0.710235C35.2883 0.63397 35.3919 0.591125 35.5 0.591125C35.6081 0.591125 35.7117 0.63397 35.7881 0.710235C35.8646 0.7865 35.9075 0.889937 35.9075 0.997792V6.49999C35.9075 6.60785 35.8646 6.71128 35.7881 6.78755C35.7117 6.86381 35.6081 6.90666 35.5 6.90666Z" fill="#1D262B"/>
<path d="M35.5 65.6944C35.3919 65.6944 35.2883 65.6515 35.2119 65.5753C35.1354 65.499 35.0925 65.3956 35.0925 65.2877V59.7733C35.0925 59.6655 35.1354 59.562 35.2119 59.4858C35.2883 59.4095 35.3919 59.3667 35.5 59.3667C35.6081 59.3667 35.7117 59.4095 35.7881 59.4858C35.8646 59.562 35.9075 59.6655 35.9075 59.7733V65.2715C35.9097 65.3262 35.9008 65.3808 35.8813 65.4321C35.8618 65.4833 35.8321 65.5301 35.7941 65.5696C35.756 65.6091 35.7103 65.6405 35.6598 65.662C35.6093 65.6834 35.5549 65.6944 35.5 65.6944Z" fill="#1D262B"/>
</svg>
