<svg width="30" height="30" viewBox="0 0 30 30" fill="none" xmlns="http://www.w3.org/2000/svg">
<g clip-path="url(#clip0_87_105)">
<path fill-rule="evenodd" clip-rule="evenodd" d="M15 6.875C13.4736 6.87534 11.9781 7.30565 10.685 8.11663C9.39184 8.92762 8.35329 10.0865 7.68833 11.4604C7.02336 12.8344 6.75887 14.3679 6.92517 15.8852C7.09147 17.4025 7.68182 18.8423 8.62859 20.0396C9.57537 21.2369 10.8403 22.1433 12.2784 22.655C13.7165 23.1666 15.2696 23.2628 16.7599 22.9325C18.2501 22.6022 19.6172 21.8588 20.7045 20.7875C21.7918 19.7162 22.5553 18.3602 22.9075 16.875H16.25C15.7527 16.875 15.2758 16.6775 14.9242 16.3258C14.5725 15.9742 14.375 15.4973 14.375 15C14.375 14.5027 14.5725 14.0258 14.9242 13.6742C15.2758 13.3225 15.7527 13.125 16.25 13.125H25C25.4973 13.125 25.9742 13.3225 26.3258 13.6742C26.6775 14.0258 26.875 14.5027 26.875 15C26.875 17.7459 25.9234 20.407 24.1821 22.5303C22.4408 24.6535 20.0175 26.1076 17.3247 26.6452C14.6319 27.1828 11.836 26.7705 9.41296 25.4786C6.98993 24.1866 5.08951 22.0949 4.03519 19.5594C2.98088 17.0239 2.83784 14.2015 3.63043 11.5724C4.42301 8.94332 6.10223 6.67018 8.38224 5.13991C10.6623 3.60964 13.4021 2.91682 16.1355 3.17939C18.8689 3.44195 21.4267 4.64368 23.3737 6.58C23.5483 6.75367 23.687 6.96003 23.7818 7.18729C23.8766 7.41455 23.9258 7.65826 23.9264 7.90451C23.927 8.15076 23.8792 8.39473 23.7855 8.62248C23.6919 8.85022 23.5543 9.0573 23.3806 9.23187C23.207 9.40645 23.0006 9.54511 22.7733 9.63994C22.5461 9.73476 22.3024 9.7839 22.0561 9.78453C21.5588 9.78582 21.0813 9.5895 20.7288 9.23875C19.9759 8.48775 19.0825 7.89244 18.0996 7.48686C17.1166 7.08128 16.0634 6.87336 15 6.875Z" fill="white"/>
</g>
<defs>
<clipPath id="clip0_87_105">
<rect width="30" height="30" fill="white"/>
</clipPath>
</defs>
</svg>
