<svg width="95" height="84" viewBox="0 0 95 84" fill="none" xmlns="http://www.w3.org/2000/svg">
<path d="M45.0493 83.2999H63.53L54.766 58.6206C54.766 58.6206 57.9473 50.5566 57.2118 48.3989C56.4763 46.2411 45.9133 35.0756 43.6404 35.1908C41.3674 35.306 29.6658 44.8764 29.4354 46.1259C29.205 47.3754 39.09 60.7784 39.5464 61.4607C41.7641 68.6384 43.601 75.9283 45.0493 83.2999Z" fill="#FFC9B0"/>
<path d="M63.53 83.743H45.0493C44.9451 83.7449 44.8434 83.71 44.7624 83.6443C44.6814 83.5787 44.6261 83.4865 44.6063 83.3841C43.1595 76.0573 41.3331 68.8107 39.1343 61.6734C39.0279 61.5228 38.7577 61.1462 38.3633 60.6056C30.388 49.5686 28.8549 46.8082 28.9923 46.0639C29.2626 44.584 41.137 34.8895 43.6138 34.7654H43.6581C46.2678 34.7654 56.8263 45.9398 57.6238 48.2704C58.3593 50.4149 55.7629 57.2914 55.2357 58.6472L63.9465 83.167C63.9699 83.2339 63.9768 83.3055 63.9668 83.3756C63.9568 83.4458 63.9301 83.5125 63.8889 83.5702C63.8467 83.625 63.7923 83.6692 63.73 83.6992C63.6677 83.7292 63.5992 83.7442 63.53 83.743ZM45.4127 82.8569H62.9053L54.3495 58.7668C54.3121 58.6668 54.3121 58.5567 54.3495 58.4567C55.2357 56.2413 57.3491 50.1845 56.7864 48.5407C56.4585 47.5792 53.7779 44.3802 50.6808 41.2521C46.7906 37.322 44.3626 35.5763 43.6581 35.6339C41.6598 35.7313 30.481 44.7125 29.874 46.1968C29.9538 46.8171 31.6463 49.7414 39.09 60.0651C39.5331 60.6942 39.8388 61.1063 39.9097 61.2126C39.9318 61.2473 39.9496 61.2845 39.9628 61.3234C42.1505 68.4022 43.9696 75.5896 45.4127 82.8569Z" fill="black"/>
<path d="M55.887 41.8768L52.1651 35.9307C52.1651 35.9307 37.4462 46.3652 24.7299 47.1937L29.2404 54.4026L33.7509 61.6158C40.0426 50.5168 55.887 41.8768 55.887 41.8768Z" fill="#FA8809"/>
<path d="M33.7553 62.0412C33.68 62.0413 33.606 62.0223 33.5401 61.9858C33.4742 61.9494 33.4186 61.8968 33.3787 61.8329L24.3577 47.4108C24.3169 47.3459 24.2936 47.2715 24.2902 47.1949C24.2868 47.1183 24.3033 47.0421 24.3381 46.9738C24.3729 46.9054 24.4249 46.8473 24.4889 46.8051C24.5529 46.7629 24.6268 46.738 24.7033 46.7329C37.1493 45.9442 51.7619 35.656 51.9082 35.5452C51.9573 35.511 52.0128 35.487 52.0715 35.4749C52.1301 35.4627 52.1906 35.4625 52.2493 35.4744C52.3084 35.4863 52.3643 35.5101 52.4139 35.5444C52.4634 35.5787 52.5054 35.6227 52.5373 35.6737L56.2592 41.6198C56.2915 41.6708 56.313 41.7279 56.3225 41.7875C56.332 41.8472 56.3291 41.9081 56.3142 41.9666C56.2993 42.0251 56.2725 42.0799 56.2356 42.1277C56.1987 42.1755 56.1525 42.2153 56.0997 42.2445C55.9401 42.3332 40.2951 50.9731 34.1408 61.8152C34.1031 61.8823 34.0485 61.9385 33.9825 61.9781C33.9164 62.0178 33.8412 62.0395 33.7642 62.0412H33.7553ZM25.4964 47.5615L33.7421 60.743C37.0873 55.2134 42.7099 50.3617 46.9147 47.2159C49.5874 45.2161 52.3747 43.3742 55.2622 41.6996L52.0322 36.5599C49.2629 38.4248 46.3868 40.1262 43.4188 41.6553C38.7532 44.039 31.9299 46.9722 25.4964 47.5615Z" fill="black"/>
<path d="M36.6601 66.2456L21.8204 42.5247L19.1234 44.212L33.9631 67.9328L36.6601 66.2456Z" fill="#FA8809"/>
<path d="M33.968 68.3771C33.9357 68.3818 33.9029 68.3818 33.8705 68.3771C33.8135 68.3647 33.7594 68.341 33.7115 68.3075C33.6636 68.2741 33.6228 68.2315 33.5914 68.1822L18.7528 44.4644C18.7219 44.4149 18.701 44.3599 18.6914 44.3024C18.6818 44.2449 18.6836 44.186 18.6968 44.1292C18.7099 44.0724 18.7342 44.0187 18.7681 43.9713C18.8021 43.9239 18.8451 43.8837 18.8946 43.8529L21.5885 42.1648C21.6897 42.1044 21.8097 42.0839 21.9252 42.1072C21.9819 42.1207 22.0353 42.1453 22.0824 42.1795C22.1296 42.2137 22.1695 42.2569 22.1999 42.3066L37.0385 66.0244C37.0697 66.0736 37.0908 66.1284 37.1008 66.1857C37.1107 66.2431 37.1093 66.3018 37.0965 66.3586C37.0838 66.4154 37.0599 66.4691 37.0264 66.5167C36.9929 66.5642 36.9504 66.6047 36.9012 66.6359L34.2029 68.324C34.131 68.363 34.0497 68.3814 33.968 68.3771ZM19.7409 44.3536L34.1098 67.3226L36.0549 66.1042L21.6815 43.1396L19.7409 44.3536Z" fill="black"/>
<path d="M37.8807 73.0455L16.2403 38.454C15.9834 38.0433 15.4421 37.9186 15.0313 38.1756L0.855173 47.0442C0.444416 47.3011 0.319748 47.8424 0.576717 48.2532L22.217 82.8446C22.474 83.2554 23.0153 83.38 23.4261 83.1231L37.6022 74.2545C38.013 73.9975 38.1376 73.4562 37.8807 73.0455Z" fill="#FA8809"/>
<path d="M22.9576 83.7031C22.7336 83.7026 22.5134 83.6454 22.3174 83.5369C22.1215 83.4285 21.9561 83.2723 21.8366 83.0828L0.201234 48.4919C0.0159885 48.1948 -0.044515 47.8365 0.0328663 47.495C0.11172 47.154 0.321878 46.8579 0.617726 46.6709L14.7961 37.8094C15.0934 37.6253 15.4513 37.5658 15.7922 37.6438C16.133 37.7217 16.4294 37.9309 16.6172 38.2259L38.257 72.8168C38.3506 72.9631 38.4137 73.1268 38.4426 73.2981C38.4715 73.4694 38.4657 73.6447 38.4254 73.8137C38.3465 74.1547 38.1364 74.4508 37.8405 74.6378L23.6621 83.4993C23.451 83.632 23.2069 83.7026 22.9576 83.7031ZM22.5854 82.6132C22.6481 82.7088 22.7454 82.7766 22.8569 82.8022C22.9683 82.8278 23.0854 82.8093 23.1836 82.7505L37.362 73.889C37.4577 73.8263 37.5254 73.729 37.551 73.6176C37.5766 73.5061 37.5581 73.389 37.4993 73.2909L15.8684 38.6911C15.8057 38.5954 15.7084 38.5277 15.5969 38.5021C15.4855 38.4765 15.3684 38.495 15.2702 38.5537L1.09182 47.4152C0.994137 47.4765 0.924199 47.5735 0.896862 47.6855C0.871399 47.7976 0.890464 47.9151 0.950033 48.0134L22.5854 82.6132Z" fill="black"/>
<path d="M28.8268 66.4377L18.2217 49.4857C17.7817 48.7824 16.8549 48.5689 16.1517 49.0089L10.6112 52.475C9.90791 52.915 9.69446 53.8418 10.1344 54.545L20.7396 71.497C21.1795 72.2003 22.1063 72.4138 22.8096 71.9738L28.35 68.5077C29.0533 68.0677 29.2668 67.1409 28.8268 66.4377Z" fill="white"/>
<path d="M22.0227 72.6484C21.8734 72.6485 21.7247 72.6307 21.5796 72.5952C21.3279 72.5373 21.0905 72.4289 20.8818 72.2766C20.6731 72.1243 20.4975 71.9312 20.3656 71.7091L9.75839 54.7614C9.48601 54.3227 9.39837 53.794 9.5146 53.2909C9.63083 52.7878 9.94149 52.3511 10.3787 52.0764L15.9171 48.6115C16.3527 48.3459 16.8751 48.2616 17.3721 48.3768C17.8691 48.4919 18.3012 48.7973 18.5756 49.2274L29.1828 66.1795C29.4568 66.6173 29.5458 67.146 29.4303 67.6494C29.3149 68.1528 29.0043 68.5898 28.5669 68.8645L23.0241 72.3294C22.7261 72.526 22.3795 72.6364 22.0227 72.6484ZM21.1366 71.2616C21.2099 71.3803 21.306 71.4834 21.4194 71.5647C21.5329 71.646 21.6613 71.704 21.7973 71.7354C21.9333 71.7667 22.0742 71.7707 22.2118 71.7472C22.3493 71.7236 22.4809 71.673 22.5987 71.5983L28.1416 68.1334C28.2596 68.0594 28.3617 67.9628 28.4423 67.8491C28.5229 67.7355 28.5802 67.6071 28.6111 67.4713C28.642 67.3355 28.6457 67.1949 28.6222 67.0576C28.5987 66.9204 28.5483 66.7891 28.4739 66.6713L17.8534 49.7192C17.7037 49.4812 17.4658 49.3121 17.1918 49.249C16.9178 49.1859 16.6299 49.2339 16.3912 49.3825L10.8528 52.8518C10.734 52.9251 10.631 53.0212 10.5496 53.1346C10.4683 53.248 10.4103 53.3765 10.379 53.5125C10.3476 53.6485 10.3436 53.7894 10.3672 53.9269C10.3907 54.0645 10.4413 54.196 10.516 54.3139L21.1366 71.2616Z" fill="black"/>
<path d="M51.3809 23.9898C49.6818 21.2692 49.1316 17.9856 49.851 14.8598C50.5704 11.7339 52.5006 9.02114 55.2179 7.3169L65.8783 0.670767C66.0279 0.578038 66.1943 0.515917 66.368 0.488002C66.5417 0.460087 66.7192 0.466936 66.8903 0.508151C67.0613 0.549366 67.2225 0.624127 67.3644 0.7281C67.5063 0.832073 67.6262 0.963188 67.7171 1.11384L73.4239 10.2013C73.6119 10.5016 73.673 10.8642 73.5936 11.2094C73.5143 11.5547 73.301 11.8543 73.0008 12.0423C72.7005 12.2303 72.3379 12.2914 71.9926 12.212C71.6474 12.1327 71.3478 11.9194 71.1598 11.6192L66.1619 3.6438L56.6313 9.58988C54.5147 10.9172 53.011 13.03 52.4503 15.4647C51.8896 17.8993 52.3177 20.457 53.6406 22.5764C53.828 22.8767 53.8885 23.2391 53.8087 23.5839C53.729 23.9287 53.5155 24.2278 53.2152 24.4152C52.915 24.6026 52.5526 24.6631 52.2078 24.5833C51.8629 24.5036 51.5639 24.2901 51.3765 23.9898H51.3809Z" fill="#FA8809"/>
<path d="M52.5196 25.0621C52.2165 25.0637 51.918 24.9876 51.6527 24.841C51.3874 24.6944 51.1642 24.4822 51.0043 24.2247C49.2438 21.4038 48.6749 17.9995 49.4226 14.7596C50.1703 11.5196 52.1734 8.70883 54.992 6.94472L65.6524 0.271997C65.8503 0.147554 66.0708 0.0634893 66.3013 0.0246427C66.5318 -0.014204 66.7678 -0.00706429 66.9955 0.0456502C67.2232 0.0983646 67.4383 0.195613 67.6283 0.331794C67.8183 0.467975 67.9795 0.640398 68.1026 0.839135L73.8005 9.97535C74.0508 10.3755 74.1319 10.8586 74.026 11.3186C73.92 11.7785 73.6357 12.1775 73.2356 12.4278C72.8355 12.6781 72.3523 12.7592 71.8924 12.6532C71.4325 12.5473 71.0335 12.263 70.7832 11.8629L66.0201 4.24195L56.8706 9.97535C54.854 11.2405 53.4215 13.2539 52.8874 15.5738C52.3533 17.8938 52.7612 20.3309 54.0216 22.3505C54.1916 22.6188 54.2863 22.9279 54.2958 23.2454C54.3053 23.563 54.2294 23.8772 54.0758 24.1553C53.9223 24.4334 53.6968 24.6651 53.4231 24.8261C53.1493 24.9872 52.8373 25.0718 52.5196 25.0709V25.0621ZM66.5828 0.896733C66.4165 0.897529 66.2537 0.945129 66.1132 1.03409L55.4528 7.70238C52.837 9.3436 50.9789 11.9553 50.2862 14.9647C49.5934 17.974 50.1226 21.1353 51.7575 23.755C51.8195 23.8542 51.9004 23.9402 51.9956 24.0082C52.0908 24.0761 52.1985 24.1246 52.3125 24.151C52.4264 24.1773 52.5445 24.1809 52.6598 24.1616C52.7752 24.1424 52.8856 24.1005 52.9848 24.0386C53.084 23.9766 53.1701 23.8957 53.238 23.8005C53.306 23.7053 53.3545 23.5976 53.3808 23.4836C53.4071 23.3697 53.4108 23.2516 53.3915 23.1363C53.3722 23.0209 53.3304 22.9105 53.2684 22.8113C51.8844 20.5924 51.437 17.9152 52.0243 15.3668C52.6115 12.8185 54.1855 10.6071 56.4009 9.21769L65.9359 3.2539C65.9858 3.22324 66.0412 3.20276 66.099 3.19363C66.1568 3.1845 66.2158 3.18692 66.2727 3.20073C66.3863 3.22701 66.4851 3.29707 66.5474 3.39568L71.5453 11.371C71.6071 11.47 71.6878 11.5558 71.7829 11.6234C71.8779 11.6911 71.9854 11.7393 72.0991 11.7654C72.2698 11.8057 72.4486 11.7945 72.6129 11.7332C72.7772 11.6718 72.9196 11.5631 73.0221 11.4208C73.1246 11.2784 73.1825 11.1089 73.1886 10.9336C73.1946 10.7584 73.1486 10.5852 73.0562 10.4362L67.3449 1.31766C67.2648 1.18784 67.1526 1.08089 67.0191 1.00715C66.8856 0.933414 66.7353 0.89538 66.5828 0.896733Z" fill="black"/>
<path d="M66.2594 47.7697C66.1666 47.621 66.104 47.4555 66.0751 47.2827C66.0463 47.1098 66.0517 46.933 66.0912 46.7622C66.1307 46.5915 66.2035 46.4302 66.3053 46.2875C66.4071 46.1449 66.5361 46.0237 66.6847 45.9309C66.985 45.7435 67.3474 45.683 67.6922 45.7628C67.863 45.8023 68.0242 45.875 68.1669 45.9769C68.3095 46.0787 68.4307 46.2076 68.5235 46.3563C69.8515 48.4722 71.9646 49.975 74.3993 50.5348C76.8339 51.0947 79.3911 50.6659 81.51 49.3426L91.0362 43.3832L86.0383 35.4079C85.9452 35.2592 85.8823 35.0937 85.8532 34.9207C85.824 34.7477 85.8293 34.5707 85.8686 34.3998C85.9079 34.2288 85.9804 34.0673 86.0821 33.9244C86.1839 33.7815 86.3128 33.66 86.4614 33.5669C86.6101 33.4738 86.7756 33.4109 86.9486 33.3818C87.1216 33.3527 87.2986 33.3579 87.4695 33.3972C87.6405 33.4365 87.802 33.5091 87.9449 33.6108C88.0878 33.7125 88.2093 33.8414 88.3024 33.99L94.0092 43.1085C94.1019 43.2581 94.1641 43.4245 94.192 43.5982C94.2199 43.7719 94.213 43.9494 94.1718 44.1205C94.1306 44.2915 94.0558 44.4527 93.9519 44.5946C93.8479 44.7366 93.7168 44.8564 93.5661 44.9473L82.9235 51.6245C80.2021 53.3215 76.9183 53.8687 73.7936 53.1459C70.669 52.4231 67.9591 50.4894 66.2594 47.7697Z" fill="#FA8809"/>
<path d="M76.5299 53.8886C74.4041 53.8889 72.3131 53.3491 70.4531 52.3199C68.5931 51.2906 67.025 49.8058 65.8961 48.0045C65.6464 47.6044 65.5658 47.1215 65.6722 46.662C65.7785 46.2025 66.0631 45.804 66.4632 45.5543C66.8633 45.3046 67.3463 45.2241 67.8058 45.3304C68.2653 45.4368 68.6637 45.7213 68.9134 46.1215C70.18 48.1328 72.1912 49.5609 74.5075 50.094C76.8238 50.627 79.257 50.2214 81.2752 48.966L90.4247 43.237L85.6617 35.6294C85.5363 35.4316 85.4514 35.211 85.4119 34.9802C85.3723 34.7494 85.3789 34.513 85.4312 34.2848C85.4836 34.0565 85.5806 33.8409 85.7167 33.6504C85.8529 33.4599 86.0254 33.2982 86.2244 33.1748C86.4224 33.0497 86.6433 32.965 86.8743 32.9258C87.1053 32.8866 87.3417 32.8935 87.57 32.9463C87.7983 32.999 88.0138 33.0965 88.2042 33.2331C88.3945 33.3696 88.5559 33.5426 88.679 33.7419L94.3814 42.8604C94.506 43.058 94.5904 43.2784 94.6296 43.5087C94.6687 43.739 94.662 43.9748 94.6097 44.2026C94.5574 44.4303 94.4606 44.6454 94.3248 44.8356C94.1891 45.0257 94.0171 45.1872 93.8187 45.3106L83.1583 51.9789C81.1727 53.2268 78.8751 53.8888 76.5299 53.8886ZM66.636 47.5349C68.2757 50.1523 70.8872 52.0121 73.8969 52.7058C76.9067 53.3994 80.0687 52.8703 82.6886 51.2346L93.349 44.5618C93.448 44.5 93.5338 44.4193 93.6014 44.3242C93.6691 44.2292 93.7173 44.1217 93.7434 44.008C93.7704 43.894 93.7744 43.7758 93.7554 43.6602C93.7364 43.5446 93.6947 43.4339 93.6326 43.3345L87.9258 34.216C87.8643 34.1164 87.7835 34.0299 87.6884 33.9616C87.5932 33.8933 87.4854 33.8446 87.3713 33.8182C87.2572 33.7918 87.1389 33.7883 87.0234 33.808C86.908 33.8276 86.7975 33.8699 86.6985 33.9325C86.5988 33.994 86.5123 34.0747 86.444 34.1699C86.3758 34.265 86.327 34.3728 86.3006 34.487C86.2743 34.6011 86.2708 34.7193 86.2904 34.8348C86.31 34.9503 86.3523 35.0607 86.4149 35.1598L91.4084 43.1351C91.4395 43.1843 91.4607 43.2391 91.4706 43.2964C91.4806 43.3538 91.4791 43.4125 91.4663 43.4693C91.4536 43.5261 91.4298 43.5798 91.3963 43.6274C91.3627 43.6749 91.3202 43.7155 91.271 43.7466L81.7449 49.7059C79.5278 51.0903 76.8525 51.5398 74.3048 50.9561C71.757 50.3723 69.5444 48.8027 68.1513 46.5911C68.0894 46.4919 68.0085 46.4059 67.9132 46.3379C67.818 46.27 67.7104 46.2215 67.5964 46.1951C67.4824 46.1688 67.3644 46.1652 67.249 46.1845C67.1337 46.2038 67.0232 46.2456 66.924 46.3076C66.8248 46.3695 66.7388 46.4504 66.6708 46.5456C66.6029 46.6408 66.5544 46.7485 66.528 46.8625C66.5017 46.9765 66.4981 47.0945 66.5174 47.2099C66.5367 47.3252 66.5785 47.4357 66.6404 47.5349H66.636Z" fill="black"/>
<path d="M74.6155 6.28291L92.3409 34.6164L72.3651 47.1132C68.6073 49.4641 64.0696 50.2259 59.7502 49.231C55.4307 48.2362 51.6834 45.5662 49.3326 41.8085C46.9817 38.0507 46.22 33.513 47.2148 29.1936C48.2096 24.8741 50.8796 21.1268 54.6374 18.776L74.6132 6.27915L74.6155 6.28291Z" fill="#FA8809"/>
<path d="M63.5433 50.1091C62.237 50.1086 60.9349 49.96 59.662 49.6661C57.4641 49.1653 55.3873 48.2339 53.5515 46.9259C51.7156 45.6178 50.1572 43.959 48.9661 42.0452C46.5555 38.1853 45.7754 33.5264 46.7973 29.0918C47.8191 24.6572 50.5593 20.8095 54.416 18.3938L74.3898 5.89463C74.4392 5.86369 74.4943 5.84281 74.5518 5.8332C74.6093 5.82358 74.6682 5.82541 74.725 5.83858C74.7818 5.85175 74.8354 5.87601 74.8828 5.90996C74.9302 5.94391 74.9705 5.98688 75.0013 6.03641L92.7243 34.3667C92.7557 34.4162 92.777 34.4715 92.7868 34.5293C92.7967 34.5871 92.795 34.6463 92.7819 34.7034C92.7683 34.76 92.7438 34.8135 92.7095 34.8606C92.6753 34.9077 92.6322 34.9477 92.5825 34.9781L72.6087 47.4773C69.8951 49.1909 66.7527 50.1033 63.5433 50.1091ZM74.4829 6.89598L54.8812 19.1559C51.2278 21.448 48.6326 25.0955 47.6649 29.2985C46.6973 33.5014 47.4361 37.9166 49.7194 41.5755C50.8508 43.3883 52.3285 44.9603 54.0679 46.2017C55.8073 47.443 57.7744 48.3294 59.8565 48.81C61.9387 49.2906 64.0952 49.3561 66.2027 49.0028C68.3102 48.6494 70.3274 47.8841 72.139 46.7506L91.7362 34.4907L74.4829 6.89598Z" fill="black"/>
<path d="M23.6045 67.2916C23.5303 67.2915 23.4574 67.2728 23.3924 67.2372C23.3274 67.2015 23.2723 67.1502 23.2323 67.0878L14.9822 54.376C14.9182 54.2773 14.896 54.1571 14.9205 54.0421C14.945 53.927 15.0142 53.8263 15.1129 53.7623C15.2116 53.6983 15.3318 53.676 15.4468 53.7006C15.5619 53.7251 15.6625 53.7943 15.7266 53.893L23.9634 66.6048C23.9954 66.6539 24.0174 66.7088 24.028 66.7665C24.0387 66.8241 24.0378 66.8832 24.0255 66.9405C24.0131 66.9978 23.9895 67.0521 23.956 67.1002C23.9225 67.1483 23.8799 67.1892 23.8304 67.2207C23.763 67.2644 23.6848 67.2889 23.6045 67.2916Z" fill="black"/>
<path d="M57.2118 48.3989C57.2118 48.3989 51.9658 38.0974 50.3751 39.1608C48.7845 40.2241 47.8762 44.3093 51.3587 48.3989C51.3587 48.3989 46.7197 50.2908 48.9661 55.971" fill="#FFC9B0"/>
<path d="M48.9661 56.4141C48.8774 56.4142 48.7907 56.3876 48.7172 56.3379C48.6437 56.2881 48.5869 56.2174 48.5541 56.135C46.6489 51.3099 49.4402 48.997 50.6764 48.2615C49.0503 46.1702 48.2882 43.8042 48.5851 41.6907C48.7623 40.4014 49.3428 39.3158 50.1314 38.7886C50.2454 38.7142 50.3743 38.6657 50.509 38.6466C50.6438 38.6275 50.7811 38.6381 50.9112 38.6778C52.9361 39.2051 56.844 46.6975 57.6061 48.1951C57.6596 48.3002 57.6691 48.4223 57.6325 48.5345C57.596 48.6467 57.5163 48.7397 57.4112 48.7932C57.306 48.8467 57.1839 48.8562 57.0717 48.8196C56.9595 48.7831 56.8665 48.7034 56.813 48.5983C54.2742 43.6137 51.3277 39.2937 50.61 39.5285C50.0384 39.9095 49.5909 40.7868 49.4491 41.8148C49.17 43.8175 49.9852 46.1126 51.6645 48.1109C51.7095 48.1641 51.7414 48.2272 51.7575 48.2951C51.7736 48.363 51.7734 48.4337 51.757 48.5015C51.7406 48.5693 51.7084 48.6322 51.6631 48.6852C51.6177 48.7382 51.5605 48.7798 51.4961 48.8065C51.3233 48.8774 47.2957 50.6187 49.3472 55.8071C49.3686 55.8615 49.3791 55.9196 49.378 55.978C49.377 56.0365 49.3643 56.0941 49.3408 56.1477C49.3174 56.2012 49.2835 56.2496 49.2413 56.29C49.199 56.3304 49.1492 56.362 49.0946 56.3831C49.0538 56.4004 49.0104 56.4108 48.9661 56.4141Z" fill="black"/>
<path d="M41.0721 33.4635L41.0686 33.4661C39.9386 34.3087 39.7056 35.9077 40.5482 37.0376L45.4639 43.6302C46.3064 44.7601 47.9054 44.9931 49.0354 44.1506L49.0389 44.1479C50.1689 43.3054 50.4019 41.7063 49.5593 40.5764L44.6436 33.9839C43.8011 32.8539 42.2021 32.6209 41.0721 33.4635Z" fill="#FFC9B0"/>
<path d="M47.5129 45.0935C47.0458 45.0958 46.5848 44.9883 46.1669 44.7797C45.749 44.5712 45.3859 44.2674 45.107 43.8928L40.1932 37.2998C39.7185 36.6629 39.5162 35.8635 39.6309 35.0774C39.7456 34.2914 40.1678 33.5831 40.8047 33.1083C41.4416 32.6336 42.241 32.4313 43.0271 32.546C43.8131 32.6606 44.5214 33.0829 44.9962 33.7198L49.9099 40.3083C50.3837 40.9463 50.5854 41.7461 50.4708 42.5326C50.3562 43.319 49.9347 44.028 49.2985 44.5042C48.7822 44.8878 48.156 45.0945 47.5129 45.0935ZM42.5903 33.4007C42.199 33.401 41.8155 33.51 41.4826 33.7157C41.1497 33.9215 40.8807 34.2157 40.7055 34.5656C40.5303 34.9155 40.4559 35.3072 40.4907 35.697C40.5254 36.0867 40.6679 36.4591 40.9022 36.7726L45.8159 43.3611C46.1502 43.81 46.6491 44.1077 47.203 44.1887C47.7568 44.2697 48.3201 44.1274 48.769 43.7931C49.2179 43.4588 49.5156 42.9598 49.5966 42.406C49.6776 41.8522 49.5353 41.2889 49.201 40.84L44.2828 34.247C44.1181 34.0243 43.9106 33.8367 43.6725 33.6952C43.4343 33.5537 43.1704 33.4611 42.896 33.4229C42.7949 33.4067 42.6926 33.3993 42.5903 33.4007Z" fill="black"/>
<path d="M36.9786 36.5149L36.975 36.5175C35.8451 37.3601 35.6121 38.9591 36.4547 40.089L41.3704 46.6816C42.2129 47.8115 43.8119 48.0445 44.9419 47.202L44.9454 47.1993C46.0754 46.3568 46.3084 44.7577 45.4658 43.6278L40.5501 37.0353C39.7076 35.9053 38.1086 35.6723 36.9786 36.5149Z" fill="#FFC9B0"/>
<path d="M43.4188 48.1507C43.2707 48.1491 43.1227 48.1387 42.9757 48.1197C42.5868 48.0629 42.2128 47.93 41.8752 47.7285C41.5377 47.527 41.2431 47.261 41.0085 46.9456L36.0948 40.3526C35.62 39.7157 35.4178 38.9163 35.5324 38.1302C35.6471 37.3442 36.0693 36.6359 36.7062 36.1611C37.3431 35.6864 38.1426 35.4841 38.9286 35.5987C39.7147 35.7134 40.423 36.1356 40.8977 36.7726L45.8114 43.3611C46.2864 43.9987 46.4888 44.7988 46.3742 45.5856C46.2595 46.3724 45.8372 47.0815 45.2 47.557C44.686 47.9421 44.0611 48.1504 43.4188 48.1507ZM38.4963 36.4535C38.105 36.4537 37.7214 36.5628 37.3886 36.7685C37.0557 36.9742 36.7866 37.2685 36.6115 37.6184C36.4363 37.9683 36.3619 38.36 36.3966 38.7498C36.4314 39.1395 36.5738 39.5119 36.8081 39.8253L41.7218 46.4139C41.8865 46.6375 42.0936 46.8263 42.3314 46.9697C42.5692 47.113 42.8329 47.208 43.1075 47.2492C43.3821 47.2903 43.6621 47.2769 43.9314 47.2096C44.2008 47.1423 44.4542 47.0224 44.6772 46.857C45.1265 46.5238 45.4254 46.0262 45.5084 45.4731C45.5915 44.92 45.4519 44.3565 45.1202 43.9061L40.1932 37.2998C40.0271 37.0775 39.8187 36.8903 39.5799 36.7488C39.3411 36.6074 39.0768 36.5146 38.802 36.4757C38.7009 36.4595 38.5986 36.4521 38.4963 36.4535Z" fill="black"/>
<path d="M32.8807 39.5707L32.8771 39.5733C31.7472 40.4159 31.5142 42.0149 32.3567 43.1449L37.2724 49.7374C38.115 50.8674 39.714 51.1003 40.8439 50.2578L40.8475 50.2551C41.9775 49.4126 42.2104 47.8136 41.3679 46.6836L36.4522 40.0911C35.6096 38.9611 34.0106 38.7282 32.8807 39.5707Z" fill="#FFC9B0"/>
<path d="M39.3248 51.1814C38.8579 51.1826 38.3973 51.0746 37.9795 50.8662C37.5618 50.6577 37.1986 50.3544 36.9189 49.9806L32.0052 43.3877C31.5305 42.7508 31.3282 41.9514 31.4428 41.1653C31.5575 40.3792 31.9797 39.6709 32.6166 39.1962C33.2536 38.7214 34.053 38.5192 34.839 38.6338C35.6251 38.7485 36.3334 39.1707 36.8081 39.8076L41.7218 46.3962C42.0553 46.8408 42.2583 47.3696 42.308 47.9231C42.3577 48.4767 42.2522 49.0332 42.0033 49.5301C41.7543 50.027 41.3719 50.4448 40.8987 50.7365C40.4256 51.0281 39.8806 51.1822 39.3248 51.1814ZM34.4022 39.4886C33.9487 39.4873 33.5071 39.6335 33.1439 39.9051C32.6943 40.239 32.3953 40.7374 32.3123 41.2913C32.2292 41.8451 32.3689 42.4093 32.7008 42.8604L37.6145 49.4489C37.9477 49.8995 38.4463 50.1993 39.0005 50.2824C39.5547 50.3655 40.1192 50.2251 40.5698 49.892C41.0191 49.5589 41.3181 49.0613 41.4011 48.5081C41.4842 47.955 41.3446 47.3915 41.0129 46.9411L36.0992 40.3482C35.9335 40.1255 35.7251 39.938 35.4863 39.7965C35.2474 39.6551 34.9829 39.5624 34.708 39.5241C34.6068 39.5093 34.5045 39.5034 34.4022 39.5063V39.4886Z" fill="black"/>
<path d="M28.7872 42.6221L28.7836 42.6248C27.6537 43.4673 27.4207 45.0663 28.2632 46.1963L33.1789 52.7888C34.0215 53.9188 35.6205 54.1517 36.7505 53.3092L36.754 53.3066C37.884 52.464 38.1169 50.865 37.2744 49.735L32.3587 43.1425C31.5161 42.0125 29.9171 41.7796 28.7872 42.6221Z" fill="#FFC9B0"/>
<path d="M35.2308 54.2519C34.764 54.2527 34.3034 54.1446 33.8858 53.9362C33.4681 53.7277 33.1048 53.4247 32.8249 53.0511L27.9112 46.4582C27.4814 45.8202 27.3136 45.0414 27.4424 44.2831C27.5712 43.5248 27.9869 42.8451 28.6032 42.3849C29.2195 41.9247 29.9892 41.7192 30.7529 41.811C31.5165 41.9028 32.2156 42.2849 32.7053 42.8781L37.619 49.4667C37.9507 49.9117 38.1523 50.4403 38.2011 50.9932C38.2499 51.5462 38.1441 52.1018 37.8955 52.5982C37.6469 53.0945 37.2652 53.512 36.7931 53.804C36.321 54.096 35.777 54.2511 35.2219 54.2519H35.2308ZM30.3082 42.5547C29.9176 42.5565 29.5351 42.6666 29.2033 42.8726C28.8714 43.0787 28.6032 43.3727 28.4283 43.722C28.2534 44.0713 28.1788 44.4622 28.2126 44.8513C28.2465 45.2405 28.3875 45.6127 28.6201 45.9265L33.5338 52.5106C33.867 52.9612 34.3655 53.261 34.9197 53.344C35.4739 53.4271 36.0384 53.2867 36.4891 52.9537C36.9384 52.6205 37.2373 52.1229 37.3204 51.5698C37.4034 51.0167 37.2638 50.4532 36.9322 50.0028L32.0185 43.4098C31.6838 42.9613 31.1853 42.6634 30.6317 42.5813C30.5245 42.5654 30.4165 42.5565 30.3082 42.5547Z" fill="black"/>
<path d="M43.2505 83.2999L40.9553 71.3369L60.4639 68.612L66.2771 83.2999H43.2505Z" fill="#FFD631"/>
<path d="M66.2771 83.743H43.2372C43.1329 83.7449 43.0313 83.7099 42.9502 83.6443C42.8692 83.5787 42.8139 83.4865 42.7941 83.3841L40.499 71.4211C40.4877 71.3621 40.4886 71.3014 40.5016 71.2428C40.5145 71.1841 40.5393 71.1287 40.5743 71.0799C40.6089 71.0312 40.6531 70.9899 40.7041 70.9587C40.7551 70.9275 40.812 70.9069 40.8711 70.8982L60.3665 68.1733C60.4648 68.1593 60.5651 68.1788 60.6511 68.2286C60.737 68.2784 60.8038 68.3557 60.8406 68.448L66.6537 83.136C66.6805 83.2031 66.6904 83.2757 66.6827 83.3475C66.675 83.4193 66.6498 83.4882 66.6094 83.5481C66.5723 83.6035 66.5231 83.6498 66.4655 83.6835C66.408 83.7173 66.3436 83.7376 66.2771 83.743ZM43.6182 82.8569H65.6258L60.1759 69.0994L41.4737 71.7135L43.6182 82.8569Z" fill="black"/>
<path d="M66.0556 63.2375C65.9381 63.2375 65.8254 63.1908 65.7423 63.1077C65.6592 63.0246 65.6125 62.9119 65.6125 62.7944V60.929C65.6125 60.8115 65.6592 60.6988 65.7423 60.6157C65.8254 60.5327 65.9381 60.486 66.0556 60.486C66.1731 60.486 66.2858 60.5327 66.3689 60.6157C66.452 60.6988 66.4987 60.8115 66.4987 60.929V62.7944C66.4987 62.9119 66.452 63.0246 66.3689 63.1077C66.2858 63.1908 66.1731 63.2375 66.0556 63.2375Z" fill="black"/>
<path d="M66.0556 67.2916C65.9381 67.2916 65.8254 67.2449 65.7423 67.1618C65.6592 67.0787 65.6125 66.966 65.6125 66.8485V64.9832C65.6125 64.8657 65.6592 64.753 65.7423 64.6699C65.8254 64.5868 65.9381 64.5401 66.0556 64.5401C66.1731 64.5401 66.2858 64.5868 66.3689 64.6699C66.452 64.753 66.4987 64.8657 66.4987 64.9832V66.8485C66.4987 66.966 66.452 67.0787 66.3689 67.1618C66.2858 67.2449 66.1731 67.2916 66.0556 67.2916Z" fill="black"/>
<path d="M69.0375 64.3319H67.1721C67.0546 64.3319 66.9419 64.2852 66.8588 64.2021C66.7757 64.119 66.729 64.0063 66.729 63.8888C66.729 63.7713 66.7757 63.6586 66.8588 63.5755C66.9419 63.4924 67.0546 63.4457 67.1721 63.4457H69.0375C69.155 63.4457 69.2677 63.4924 69.3508 63.5755C69.4339 63.6586 69.4805 63.7713 69.4805 63.8888C69.4805 64.0063 69.4339 64.119 69.3508 64.2021C69.2677 64.2852 69.155 64.3319 69.0375 64.3319Z" fill="black"/>
<path d="M64.9612 64.3319H63.1003C62.9827 64.3319 62.87 64.2852 62.787 64.2021C62.7039 64.119 62.6572 64.0063 62.6572 63.8888C62.6572 63.7713 62.7039 63.6586 62.787 63.5755C62.87 63.4924 62.9827 63.4457 63.1003 63.4457H64.9612C65.0787 63.4457 65.1914 63.4924 65.2745 63.5755C65.3576 63.6586 65.4042 63.7713 65.4042 63.8888C65.4042 64.0063 65.3576 64.119 65.2745 64.2021C65.1914 64.2852 65.0787 64.3319 64.9612 64.3319Z" fill="black"/>
<path d="M83.0918 66.1972C82.9743 66.1972 82.8616 66.1505 82.7785 66.0674C82.6954 65.9843 82.6487 65.8716 82.6487 65.7541V63.8888C82.6487 63.7713 82.6954 63.6586 82.7785 63.5755C82.8616 63.4924 82.9743 63.4457 83.0918 63.4457C83.2093 63.4457 83.322 63.4924 83.4051 63.5755C83.4882 63.6586 83.5349 63.7713 83.5349 63.8888V65.7541C83.5349 65.8716 83.4882 65.9843 83.4051 66.0674C83.322 66.1505 83.2093 66.1972 83.0918 66.1972Z" fill="black"/>
<path d="M83.0918 70.2336C82.9743 70.2336 82.8616 70.187 82.7785 70.1039C82.6954 70.0208 82.6487 69.9081 82.6487 69.7906V67.9252C82.6487 67.8077 82.6954 67.695 82.7785 67.6119C82.8616 67.5288 82.9743 67.4821 83.0918 67.4821C83.2093 67.4821 83.322 67.5288 83.4051 67.6119C83.4882 67.695 83.5349 67.8077 83.5349 67.9252V69.7906C83.5349 69.9081 83.4882 70.0208 83.4051 70.1039C83.322 70.187 83.2093 70.2336 83.0918 70.2336Z" fill="black"/>
<path d="M86.0516 67.2916H84.1862C84.0687 67.2916 83.956 67.2449 83.8729 67.1618C83.7898 67.0787 83.7431 66.9661 83.7431 66.8485C83.7431 66.731 83.7898 66.6183 83.8729 66.5352C83.956 66.4521 84.0687 66.4055 84.1862 66.4055H86.0516C86.1691 66.4055 86.2818 66.4521 86.3649 66.5352C86.448 66.6183 86.4946 66.731 86.4946 66.8485C86.4946 66.9661 86.448 67.0787 86.3649 67.1618C86.2818 67.2449 86.1691 67.2916 86.0516 67.2916Z" fill="black"/>
<path d="M81.9974 67.2916H80.1144C79.9969 67.2916 79.8842 67.2449 79.8011 67.1618C79.718 67.0787 79.6713 66.9661 79.6713 66.8485C79.6713 66.731 79.718 66.6183 79.8011 66.5352C79.8842 66.4521 79.9969 66.4055 80.1144 66.4055H81.9797C82.0972 66.4055 82.2099 66.4521 82.293 66.5352C82.3761 66.6183 82.4228 66.731 82.4228 66.8485C82.4228 66.9661 82.3761 67.0787 82.293 67.1618C82.2099 67.2449 82.0972 67.2916 81.9797 67.2916H81.9974Z" fill="black"/>
<path d="M35.727 9.43037C35.6095 9.43037 35.4968 9.38369 35.4137 9.3006C35.3306 9.21751 35.284 9.10481 35.284 8.9873V5.69082C35.284 5.57331 35.3306 5.46061 35.4137 5.37752C35.4968 5.29442 35.6095 5.24774 35.727 5.24774C35.8446 5.24774 35.9572 5.29442 36.0403 5.37752C36.1234 5.46061 36.1701 5.57331 36.1701 5.69082V8.9873C36.1701 9.10481 36.1234 9.21751 36.0403 9.3006C35.9572 9.38369 35.8446 9.43037 35.727 9.43037Z" fill="black"/>
<path d="M35.727 16.5949C35.6095 16.5949 35.4968 16.5482 35.4137 16.4651C35.3306 16.382 35.284 16.2693 35.284 16.1518V12.8553C35.284 12.7378 35.3306 12.6251 35.4137 12.542C35.4968 12.4589 35.6095 12.4123 35.727 12.4123C35.8446 12.4123 35.9572 12.4589 36.0403 12.542C36.1234 12.6251 36.1701 12.7378 36.1701 12.8553V16.1518C36.1701 16.2693 36.1234 16.382 36.0403 16.4651C35.9572 16.5482 35.8446 16.5949 35.727 16.5949Z" fill="black"/>
<path d="M40.9553 11.3666H37.6633C37.5458 11.3666 37.4331 11.3199 37.35 11.2368C37.2669 11.1537 37.2202 11.041 37.2202 10.9235C37.2202 10.806 37.2669 10.6933 37.35 10.6102C37.4331 10.5271 37.5458 10.4805 37.6633 10.4805H40.9553C41.0728 10.4805 41.1855 10.5271 41.2686 10.6102C41.3517 10.6933 41.3984 10.806 41.3984 10.9235C41.3984 11.041 41.3517 11.1537 41.2686 11.2368C41.1855 11.3199 41.0728 11.3666 40.9553 11.3666Z" fill="black"/>
<path d="M33.7952 11.3666H30.4899C30.3724 11.3666 30.2597 11.3199 30.1766 11.2368C30.0935 11.1537 30.0468 11.041 30.0468 10.9235C30.0468 10.806 30.0935 10.6933 30.1766 10.6102C30.2597 10.5271 30.3724 10.4805 30.4899 10.4805H33.7864C33.9039 10.4805 34.0166 10.5271 34.0997 10.6102C34.1828 10.6933 34.2294 10.806 34.2294 10.9235C34.2294 11.041 34.1828 11.1537 34.0997 11.2368C34.0166 11.3199 33.9039 11.3666 33.7864 11.3666H33.7952Z" fill="black"/>
<path d="M12.5365 20.1661C12.4189 20.1661 12.3063 20.1194 12.2232 20.0363C12.1401 19.9532 12.0934 19.8405 12.0934 19.723V17.8665C12.0934 17.749 12.1401 17.6363 12.2232 17.5532C12.3063 17.4701 12.4189 17.4235 12.5365 17.4235C12.654 17.4235 12.7667 17.4701 12.8498 17.5532C12.9329 17.6363 12.9795 17.749 12.9795 17.8665V19.723C12.9795 19.8405 12.9329 19.9532 12.8498 20.0363C12.7667 20.1194 12.654 20.1661 12.5365 20.1661Z" fill="black"/>
<path d="M12.5365 24.2291C12.4189 24.2291 12.3063 24.1824 12.2232 24.0993C12.1401 24.0162 12.0934 23.9035 12.0934 23.786V21.9384C12.0934 21.8209 12.1401 21.7082 12.2232 21.6251C12.3063 21.542 12.4189 21.4953 12.5365 21.4953C12.654 21.4953 12.7667 21.542 12.8498 21.6251C12.9329 21.7082 12.9795 21.8209 12.9795 21.9384V23.8037C12.975 23.9182 12.9263 24.0264 12.8437 24.1056C12.7611 24.1849 12.651 24.2292 12.5365 24.2291Z" fill="black"/>
<path d="M15.4918 21.2694H13.6264C13.5089 21.2694 13.3962 21.2227 13.3131 21.1396C13.23 21.0565 13.1833 20.9438 13.1833 20.8263C13.1833 20.7088 13.23 20.5961 13.3131 20.513C13.3962 20.4299 13.5089 20.3832 13.6264 20.3832H15.4918C15.6093 20.3832 15.722 20.4299 15.8051 20.513C15.8882 20.5961 15.9348 20.7088 15.9348 20.8263C15.9348 20.9438 15.8882 21.0565 15.8051 21.1396C15.722 21.2227 15.6093 21.2694 15.4918 21.2694Z" fill="black"/>
<path d="M11.4376 21.2694H9.57671C9.4592 21.2694 9.3465 21.2227 9.26341 21.1396C9.18032 21.0565 9.13364 20.9438 9.13364 20.8263C9.13364 20.7088 9.18032 20.5961 9.26341 20.513C9.3465 20.4299 9.4592 20.3832 9.57671 20.3832H11.4376C11.5551 20.3832 11.6678 20.4299 11.7509 20.513C11.834 20.5961 11.8807 20.7088 11.8807 20.8263C11.8807 20.9438 11.834 21.0565 11.7509 21.1396C11.6678 21.2227 11.5551 21.2694 11.4376 21.2694Z" fill="black"/>
<path d="M29.4309 30.6626C29.3134 30.6626 29.2007 30.6159 29.1176 30.5328C29.0345 30.4497 28.9879 30.337 28.9879 30.2195V24.619C28.9879 24.5015 29.0345 24.3888 29.1176 24.3057C29.2007 24.2226 29.3134 24.1759 29.4309 24.1759C29.5484 24.1759 29.6611 24.2226 29.7442 24.3057C29.8273 24.3888 29.874 24.5015 29.874 24.619V30.2195C29.874 30.337 29.8273 30.4497 29.7442 30.5328C29.6611 30.6159 29.5484 30.6626 29.4309 30.6626Z" fill="black"/>
<path d="M32.2312 27.8623H26.6351C26.5176 27.8623 26.4049 27.8156 26.3218 27.7325C26.2387 27.6494 26.1921 27.5367 26.1921 27.4192C26.1921 27.3017 26.2387 27.189 26.3218 27.1059C26.4049 27.0228 26.5176 26.9762 26.6351 26.9762H32.2312C32.3487 26.9762 32.4614 27.0228 32.5445 27.1059C32.6276 27.189 32.6743 27.3017 32.6743 27.4192C32.6743 27.5367 32.6276 27.6494 32.5445 27.7325C32.4614 27.8156 32.3487 27.8623 32.2312 27.8623Z" fill="black"/>
</svg>
